<svg xmlns="http://www.w3.org/2000/svg" width="31" height="31" viewBox="0 0 31 31">
  <g id="Group_42" data-name="Group 42" transform="translate(-373 -122)">
    <rect id="Rectangle_53" data-name="Rectangle 53" width="31" height="31" rx="5" transform="translate(373 122)" fill="#81bd41"/>
    <g id="Layer_2" data-name="Layer 2" transform="translate(374.504 122.093)">
      <path id="Path_31" data-name="Path 31" d="M17.409,24.814H11.138a1.568,1.568,0,0,1,0-3.136h6.271a1.568,1.568,0,1,1,0,3.136Zm2.681-9.861-4.7,4.7a1.568,1.568,0,0,1-2.226,0l-4.7-4.7a1.574,1.574,0,0,1,2.226-2.226l2.022,2.038v-7.2a1.568,1.568,0,0,1,3.136,0v7.2l2.022-2.038a1.574,1.574,0,0,1,2.226,2.226Z" fill="#fff"/>
    </g>
  </g>
</svg>
