<svg xmlns="http://www.w3.org/2000/svg" width="21.985" height="27.707" viewBox="0 0 21.985 27.707">
  <path id="png-file_1_" data-name="png-file (1)" d="M4.8.007h7.664a1.149,1.149,0,0,1,.815.338L22.337,9.4a1.148,1.148,0,0,1,.338.815V23.6a4.127,4.127,0,0,1-4.111,4.11H4.8A4.121,4.121,0,0,1,.69,23.6V4.118A4.1,4.1,0,0,1,1.9,1.218l0,0A4.1,4.1,0,0,1,4.8.007Zm9.607,16.321-2.851,3.694-3.531-.986L5.155,22.12a1.364,1.364,0,0,0,1.357,1.356H16.854a1.369,1.369,0,0,0,1.357-1.356ZM8.531,13.853a1.711,1.711,0,1,1-1.71,1.711,1.711,1.711,0,0,1,1.71-1.711ZM20.37,11.937h-4.8a4.1,4.1,0,0,1-2.9-1.208l-.071-.078a4.092,4.092,0,0,1-1.137-2.824V2.312H4.8a1.8,1.8,0,0,0-1.274.527l0,0A1.8,1.8,0,0,0,3,4.118V23.6a1.816,1.816,0,0,0,1.805,1.8H18.564a1.822,1.822,0,0,0,1.805-1.8ZM13.76,4.085V7.827a1.792,1.792,0,0,0,.481,1.224l.051.048a1.8,1.8,0,0,0,1.273.533h3.741Z" transform="translate(-0.69 -0.007)" fill="#fff"/>
</svg>
