<svg xmlns="http://www.w3.org/2000/svg" width="22.557" height="27.707" viewBox="0 0 22.557 27.707">
  <path id="xls-file" d="M60.36,0H49.231a2.953,2.953,0,0,0-2.949,2.949v10.9h-.288a1.188,1.188,0,0,0-1.188,1.188v7.207a1.188,1.188,0,0,0,1.188,1.188h.288v1.321a2.952,2.952,0,0,0,2.949,2.949H64.415a2.952,2.952,0,0,0,2.948-2.949V6.979ZM47.831,16.276h1.3l.437.912c.148.3.26.549.379.831h.014c.119-.319.215-.542.341-.831l.423-.912h1.29L50.6,18.715l1.483,2.559H50.782l-.452-.9c-.185-.349-.3-.608-.445-.9H49.87c-.1.29-.23.549-.386.9l-.415.9h-1.29l1.446-2.529ZM64.415,25.9H49.231a1.144,1.144,0,0,1-1.142-1.143V23.437H62.244a1.188,1.188,0,0,0,1.188-1.188V15.042a1.188,1.188,0,0,0-1.188-1.188H48.089V2.949a1.144,1.144,0,0,1,1.142-1.141L59.684,1.8V5.66a2.046,2.046,0,0,0,2.045,2.045l3.785-.011.043,17.063A1.143,1.143,0,0,1,64.415,25.9Zm-8.6-5.576v.949H52.7v-5h1.134v4.048Zm1.915-1.149c-.831-.289-1.372-.749-1.372-1.475,0-.853.712-1.505,1.891-1.505a3.069,3.069,0,0,1,1.276.252l-.252.912a2.38,2.38,0,0,0-1.046-.237c-.49,0-.727.223-.727.482,0,.319.282.46.927.7.883.326,1.3.786,1.3,1.491,0,.838-.645,1.55-2.017,1.55a3.269,3.269,0,0,1-1.417-.3l.23-.934a2.881,2.881,0,0,0,1.253.311c.519,0,.793-.215.793-.541S58.335,19.39,57.735,19.175Z" transform="translate(-44.806)" fill="#fff"/>
</svg>
